<mxfile host="65bd71144e">
    <diagram id="aAwmn7CziFslETN9Z1WF" name="Page-1">
        <mxGraphModel dx="1136" dy="607" grid="1" gridSize="10" guides="1" tooltips="1" connect="1" arrows="1" fold="1" page="1" pageScale="1" pageWidth="850" pageHeight="1100" math="0" shadow="0">
            <root>
                <mxCell id="0"/>
                <mxCell id="1" parent="0"/>
                <mxCell id="2" value="F1 Quiz" style="swimlane;whiteSpace=wrap;html=1;" vertex="1" parent="1">
                    <mxGeometry x="80" y="120" width="680" height="560" as="geometry"/>
                </mxCell>
                <mxCell id="3" value="&lt;h1 style=&quot;text-align: center;&quot;&gt;F1 QUIZ&lt;/h1&gt;&lt;p&gt;Lorem ipsum dolor sit amet, consectetur adipisicing elit, sed do eiusmod tempor incididunt ut labore et dolore magna aliqua.&lt;/p&gt;" style="text;html=1;strokeColor=none;fillColor=none;spacing=5;spacingTop=-20;whiteSpace=wrap;overflow=hidden;rounded=0;" vertex="1" parent="2">
                    <mxGeometry x="40" y="50" width="600" height="120" as="geometry"/>
                </mxCell>
                <mxCell id="4" value="Question 1" style="swimlane;fontStyle=0;childLayout=stackLayout;horizontal=1;startSize=30;horizontalStack=0;resizeParent=1;resizeParentMax=0;resizeLast=0;collapsible=1;marginBottom=0;whiteSpace=wrap;html=1;" vertex="1" parent="2">
                    <mxGeometry x="160" y="180" width="360" height="120" as="geometry"/>
                </mxCell>
                <mxCell id="5" value="A. Max Verstappen" style="text;strokeColor=none;fillColor=none;align=left;verticalAlign=middle;spacingLeft=4;spacingRight=4;overflow=hidden;points=[[0,0.5],[1,0.5]];portConstraint=eastwest;rotatable=0;whiteSpace=wrap;html=1;" vertex="1" parent="4">
                    <mxGeometry y="30" width="360" height="30" as="geometry"/>
                </mxCell>
                <mxCell id="6" value="B. Fernando Alonso" style="text;strokeColor=none;fillColor=none;align=left;verticalAlign=middle;spacingLeft=4;spacingRight=4;overflow=hidden;points=[[0,0.5],[1,0.5]];portConstraint=eastwest;rotatable=0;whiteSpace=wrap;html=1;" vertex="1" parent="4">
                    <mxGeometry y="60" width="360" height="30" as="geometry"/>
                </mxCell>
                <mxCell id="7" value="C. Lewis Hamilton" style="text;strokeColor=none;fillColor=none;align=left;verticalAlign=middle;spacingLeft=4;spacingRight=4;overflow=hidden;points=[[0,0.5],[1,0.5]];portConstraint=eastwest;rotatable=0;whiteSpace=wrap;html=1;" vertex="1" parent="4">
                    <mxGeometry y="90" width="360" height="30" as="geometry"/>
                </mxCell>
            </root>
        </mxGraphModel>
    </diagram>
</mxfile>